:FULLY-SPECIFIED
:FORCE-ALL-JOINTS-BE-3DOF
:DEGREES
71
root 0.614814 18.6412 1.63303 4.64744 -0.901877 -4.35566
lfemur -27.2041 -7.85464 -11.711
ltibia 34.2393 -0 0
lfoot 7.68674 -4.52289 0.0676051
ltoes -20.179 0 0
rfemur 7.94453 6.51429 28.7476
rtibia 38.5329 -0 0
rfoot 27.8473 -4.29341 0.132905
rtoes 17.6296 -0 0
lowerback 13.73 0.122622 4.14852
upperback 0.79709 0.790238 -0.108665
thorax -6.435 0.277057 -2.50451
lowerneck -7.29256 -0.369204 -0.969955
upperneck -6.79442 -0.376497 1.42951
head -0.889894 -0.172074 0.585547
lclavicle -8.01071e-15 2.41106e-15 -4.45998e-31
lhumerus -49.4962 -6.71769 90.3609
lradius 107.069 -0 0
lwrist 26.8756 0 0
lhand -37.7068 9.85595 0.00599745
lfingers 7.12502 -0 0
lthumb -10.7564 39.5602 0.00584366
rclavicle -8.01071e-15 2.41106e-15 -4.45998e-31
rhumerus -38.029 19.0053 -87.7677
rradius 102.744 -0 0
rwrist -2.03668 0 0
rhand -43.8182 35.9574 0.000958835
rfingers 7.12502 -0 0
rthumb -16.6462 6.65142 0.000873679
72
root 0.614276 18.6073 2.15292 4.54143 -0.595125 -3.96151
lfemur -25.6036 -7.77181 -12.4376
ltibia 33.8977 -0 0
lfoot 7.2136 -4.61188 0.072755
ltoes -20.6777 0 0
rfemur 5.69535 6.09261 28.0054
rtibia 41.2686 -0 0
rfoot 27.1514 -4.41235 0.143043
rtoes 17.3657 -0 0
lowerback 13.862 -0.0546054 3.7114
upperback 0.805407 0.487236 -0.190774
thorax -6.49605 0.140815 -2.28194
lowerneck -7.22199 -0.318229 -1.00484
upperneck -6.84836 -0.306028 1.44793
head -0.919446 -0.136624 0.597997
lclavicle -7.70131e-15 3.3088e-15 -4.79933e-31
lhumerus -47.8517 -7.1229 90.2546
lradius 107.442 -0 0
lwrist 26.986 0 0
lhand -37.734 9.71848 0.00645382
lfingers 7.12502 -0 0
lthumb -10.7826 39.4214 0.00628833
rclavicle -7.70131e-15 3.3088e-15 -4.79933e-31
rhumerus -38.9669 18.322 -87.6763
rradius 101.726 -0 0
rwrist -2.07801 0 0
rhand -43.8379 35.9272 0.00103179
rfingers 7.12502 -0 0
rthumb -16.6652 6.62281 0.000940155
73
root 0.613737 18.5733 2.67282 4.43755 -0.28765 -3.56794
lfemur -24.0046 -7.6689 -13.1615
ltibia 33.5562 -0 0
lfoot 6.74044 -4.70091 0.0771698
ltoes -21.1763 0 0
rfemur 3.4536 5.64236 27.2811
rtibia 44.0044 -0 0
rfoot 26.4554 -4.5314 0.151735
rtoes 17.1018 -0 0
lowerback 13.9954 -0.23082 3.27386
upperback 0.814158 0.184246 -0.272924
thorax -6.55763 0.00481043 -2.05921
lowerneck -7.15145 -0.267212 -1.03967
upperneck -6.90228 -0.235541 1.46628
head -0.948991 -0.101168 0.610428
lclavicle -7.39191e-15 4.20653e-15 -5.0902e-31
lhumerus -46.205 -7.52492 90.1365
lradius 107.816 -0 0
lwrist 27.0964 0 0
lhand -37.7611 9.58101 0.006845
lfingers 7.12502 -0 0
lthumb -10.8088 39.2825 0.00666948
rclavicle -7.39191e-15 4.20653e-15 -5.0902e-31
rhumerus -39.9024 17.6402 -87.5735
rradius 100.708 -0 0
rwrist -2.11933 0 0
rhand -43.8577 35.897 0.00109432
rfingers 7.12502 -0 0
rthumb -16.6842 6.5942 0.000997134
74
root 0.613199 18.5394 3.19271 4.33578 0.0205295 -3.17493
lfemur -22.4075 -7.54604 -13.8819
ltibia 33.2147 -0 0
lfoot 6.26728 -4.78997 0.0808493
ltoes -21.675 0 0
rfemur 1.21946 5.16431 26.5755
rtibia 46.7401 -0 0
rfoot 25.7595 -4.65055 0.158981
rtoes 16.8379 -0 0
lowerback 14.13 -0.406011 2.83591
upperback 0.823343 -0.118731 -0.35512
thorax -6.61973 -0.130953 -1.83634
lowerneck -7.08094 -0.216151 -1.07443
upperneck -6.95617 -0.165038 1.48457
head -0.978527 -0.0657053 0.622842
lclavicle -7.08251e-15 5.10427e-15 -5.33259e-31
lhumerus -44.5559 -7.9234 90.0066
lradius 108.189 -0 0
lwrist 27.2068 0 0
lhand -37.7883 9.44354 0.00717099
lfingers 7.12502 -0 0
lthumb -10.835 39.1437 0.00698711
rclavicle -7.08251e-15 5.10427e-15 -5.33259e-31
rhumerus -40.8357 16.9601 -87.4594
rradius 99.6902 -0 0
rwrist -2.16066 0 0
rhand -43.8774 35.8668 0.00114643
rfingers 7.12502 -0 0
rthumb -16.7032 6.56559 0.00104462
75
root 0.612661 18.5055 3.7126 4.23612 0.3294 -2.78246
lfemur -20.8126 -7.40333 -14.5985
ltibia 32.8732 -0 0
lfoot 5.79412 -4.87905 0.0837933
ltoes -22.1736 0 0
rfemur -1.00696 4.65929 25.8897
rtibia 49.4758 -0 0
rfoot 25.0635 -4.76978 0.164779
rtoes 16.574 -0 0
lowerback 14.2661 -0.580167 2.39753
upperback 0.832963 -0.421694 -0.437367
thorax -6.68236 -0.266474 -1.61333
lowerneck -7.01047 -0.165048 -1.10913
upperneck -7.01004 -0.0945168 1.50279
head -1.00806 -0.0302361 0.635237
lclavicle -6.77311e-15 6.00201e-15 -5.5265e-31
lhumerus -42.9043 -8.318 89.8651
lradius 108.563 -0 0
lwrist 27.3172 0 0
lhand -37.8155 9.30606 0.00743178
lfingers 7.12502 -0 0
lthumb -10.8613 39.0048 0.00724122
rclavicle -6.77311e-15 6.00201e-15 -5.5265e-31
rhumerus -41.767 16.2819 -87.3342
rradius 98.6724 -0 0
rwrist -2.20199 0 0
rhand -43.8972 35.8365 0.00118812
rfingers 7.12502 -0 0
rthumb -16.7222 6.53698 0.0010826
76
root 0.612122 18.4715 4.2325 4.13858 0.638945 -2.39051
lfemur -19.2201 -7.24092 -15.3104
ltibia 32.5316 -0 0
lfoot 5.32095 -4.96816 0.0860014
ltoes -22.6722 0 0
rfemur -3.22561 4.12814 25.2245
rtibia 52.2116 -0 0
rfoot 24.3675 -4.88907 0.169128
rtoes 16.3101 -0 0
lowerback 14.4034 -0.753276 1.95873
upperback 0.843019 -0.724644 -0.519669
thorax -6.74552 -0.401751 -1.39016
lowerneck -6.94002 -0.113902 -1.14376
upperneck -7.06389 -0.0239788 1.52095
head -1.03758 0.00523934 0.647614
lclavicle -6.46371e-15 6.89974e-15 -5.67193e-31
lhumerus -41.2499 -8.70841 89.712
lradius 108.936 -0 0
lwrist 27.4276 0 0
lhand -37.8427 9.16859 0.00762738
lfingers 7.12502 -0 0
lthumb -10.8875 38.8659 0.0074318
rclavicle -6.46371e-15 6.89974e-15 -5.67193e-31
rhumerus -42.6968 15.6057 -87.198
rradius 97.6545 -0 0
rwrist -2.24331 0 0
rhand -43.917 35.8063 0.00121939
rfingers 7.12502 -0 0
rthumb -16.7413 6.50838 0.00111109
77
root 0.611584 18.4376 4.75239 4.04315 0.94915 -1.99906
lfemur -17.6304 -7.05896 -16.0173
ltibia 32.1901 -0 0
lfoot 4.84778 -5.05728 0.0874736
ltoes -23.1709 0 0
rfemur -5.43653 3.57177 24.5809
rtibia 54.9473 -0 0
rfoot 23.6715 -5.0084 0.172028
rtoes 16.0462 -0 0
lowerback 14.5421 -0.925328 1.51949
upperback 0.853511 -1.02758 -0.602031
thorax -6.80921 -0.53678 -1.16683
lowerneck -6.86961 -0.062713 -1.17834
upperneck -7.11771 0.0465762 1.53904
head -1.06709 0.0407212 0.659972
lclavicle -6.15431e-15 7.79748e-15 -5.76889e-31
lhumerus -39.5928 -9.09427 89.5474
lradius 109.309 -0 0
lwrist 27.538 0 0
lhand -37.8698 9.03112 0.00775778
lfingers 7.12502 -0 0
lthumb -10.9137 38.7271 0.00755886
rclavicle -6.15431e-15 7.79748e-15 -5.76889e-31
rhumerus -43.6253 14.9317 -87.051
rradius 96.6366 -0 0
rwrist -2.28464 0 0
rhand -43.9367 35.7761 0.00124023
rfingers 7.12502 -0 0
rthumb -16.7603 6.47977 0.00113009
78
root 0.611045 18.4036 5.27229 3.94983 1.26 -1.60809
lfemur -16.0437 -6.85763 -16.7186
ltibia 31.8486 -0 0
lfoot 4.37461 -5.14642 0.0882097
ltoes -23.6695 0 0
rfemur -7.63979 2.99108 23.9596
rtibia 57.6831 -0 0
rfoot 22.9755 -5.12777 0.173478
rtoes 15.7823 -0 0
lowerback 14.6821 -1.09631 1.07981
upperback 0.864439 -1.3305 -0.684457
thorax -6.87342 -0.67156 -0.943355
lowerneck -6.79923 -0.011482 -1.21285
upperneck -7.17151 0.117148 1.55706
head -1.0966 0.0762094 0.672312
lclavicle -5.84491e-15 8.69522e-15 -5.81737e-31
lhumerus -37.9328 -9.47527 89.3714
lradius 109.683 -0 0
lwrist 27.6484 0 0
lhand -37.897 8.89365 0.00782298
lfingers 7.12502 -0 0
lthumb -10.9399 38.5882 0.00762238
rclavicle -5.84491e-15 8.69522e-15 -5.81737e-31
rhumerus -44.5527 14.2601 -86.8931
rradius 95.6187 -0 0
rwrist -2.32597 0 0
rhand -43.9565 35.7459 0.00125066
rfingers 7.12502 -0 0
rthumb -16.7793 6.45116 0.00113958
79
root 0.610507 18.3697 5.79218 3.85862 1.57148 -1.21757
lfemur -14.4603 -6.63713 -17.4136
ltibia 31.507 -0 0
lfoot 3.90143 -5.23555 0.0882097
ltoes -24.1682 0 0
rfemur -9.83555 2.387 23.3614
rtibia 60.4188 -0 0
rfoot 22.2795 -5.24713 0.173478
rtoes 15.5183 -0 0
lowerback 14.8234 -1.26622 0.639695
upperback 0.875805 -1.6334 -0.766953
thorax -6.93817 -0.806088 -0.719719
lowerneck -6.72888 0.0397914 -1.24729
upperneck -7.22529 0.187737 1.57502
head -1.1261 0.111704 0.684634
lclavicle -5.53552e-15 9.59295e-15 -5.81737e-31
lhumerus -36.2697 -9.85107 89.184
lradius 110.056 -0 0
lwrist 27.7587 0 0
lhand -37.9242 8.75618 0.00782298
lfingers 7.12502 -0 0
lthumb -10.9661 38.4494 0.00762238
rclavicle -5.53552e-15 9.59295e-15 -5.81737e-31
rhumerus -45.4794 13.591 -86.7245
rradius 94.6008 -0 0
rwrist -2.36729 0 0
rhand -43.9762 35.7156 0.00125066
rfingers 7.12502 -0 0
rthumb -16.7983 6.42255 0.00113958
80
root 0.609968 18.3357 6.31208 3.76953 1.88357 -0.827487
lfemur -12.8805 -6.39766 -18.102
ltibia 31.1655 -0 0
lfoot 3.42826 -5.32469 0.0874736
ltoes -24.6668 0 0
rfemur -12.024 1.76052 22.7871
rtibia 63.1546 -0 0
rfoot 21.5835 -5.3665 0.172028
rtoes 15.2544 -0 0
lowerback 14.9661 -1.43503 0.199127
upperback 0.887609 -1.93629 -0.849522
thorax -7.00344 -0.940362 -0.495923
lowerneck -6.65856 0.091107 -1.28168
upperneck -7.27905 0.258343 1.59291
head -1.15559 0.147205 0.696938
lclavicle -5.22612e-15 1.04907e-14 -5.76889e-31
lhumerus -34.6034 -10.2213 88.9855
lradius 110.43 -0 0
lwrist 27.8691 0 0
lhand -37.9514 8.61871 0.00775778
lfingers 7.12502 -0 0
lthumb -10.9923 38.3105 0.00755886
rclavicle -5.22612e-15 1.04907e-14 -5.76889e-31
rhumerus -46.4055 12.9247 -86.5453
rradius 93.5829 -0 0
rwrist -2.40862 0 0
rhand -43.996 35.6854 0.00124023
rfingers 7.12502 -0 0
rthumb -16.8173 6.39394 0.00113009
81
root 0.60943 18.3018 6.83197 3.68255 2.19626 -0.437812
lfemur -11.3044 -6.13944 -18.7831
ltibia 30.824 -0 0
lfoot 2.95509 -5.41381 0.0860014
ltoes -25.1655 0 0
rfemur -14.2055 1.11261 22.2372
rtibia 65.8903 -0 0
rfoot 20.8875 -5.48583 0.169128
rtoes 14.9905 -0 0
lowerback 15.11 -1.60274 -0.241893
upperback 0.899852 -2.23916 -0.93217
thorax -7.06923 -1.07438 -0.271965
lowerneck -6.58827 0.142465 -1.316
upperneck -7.33279 0.328965 1.61073
head -1.18507 0.182712 0.709224
lclavicle -4.91672e-15 1.13884e-14 -5.67193e-31
lhumerus -32.9339 -10.5858 88.7758
lradius 110.803 -0 0
lwrist 27.9795 0 0
lhand -37.9785 8.48124 0.00762738
lfingers 7.12502 -0 0
lthumb -11.0185 38.1717 0.0074318
rclavicle -4.91672e-15 1.13884e-14 -5.67193e-31
rhumerus -47.3313 12.2613 -86.3555
rradius 92.565 -0 0
rwrist -2.44995 0 0
rhand -44.0157 35.6552 0.00121939
rfingers 7.12502 -0 0
rthumb -16.8363 6.36533 0.00111109
82
root 0.608891 18.2678 7.35187 3.59767 2.50953 -0.0485251
lfemur -9.73225 -5.86273 -19.4565
ltibia 30.4824 -0 0
lfoot 2.48192 -5.50292 0.0837933
ltoes -25.6641 0 0
rfemur -16.3803 0.444271 21.7125
rtibia 68.6261 -0 0
rfoot 20.1915 -5.60512 0.164779
rtoes 14.7266 -0 0
lowerback 15.2552 -1.76934 -0.683372
upperback 0.912536 -2.54201 -1.0149
thorax -7.13555 -1.20814 -0.0478427
lowerneck -6.51801 0.193865 -1.35026
upperneck -7.38651 0.399604 1.62849
head -1.21454 0.218226 0.721491
lclavicle -4.60732e-15 1.22862e-14 -5.5265e-31
lhumerus -31.261 -10.944 88.5551
lradius 111.176 -0 0
lwrist 28.0899 0 0
lhand -38.0057 8.34377 0.00743178
lfingers 7.12502 -0 0
lthumb -11.0447 38.0328 0.00724122
rclavicle -4.60732e-15 1.22862e-14 -5.5265e-31
rhumerus -48.2571 11.6009 -86.1553
rradius 91.5471 -0 0
rwrist -2.49127 0 0
rhand -44.0355 35.625 0.00118812
rfingers 7.12502 -0 0
rthumb -16.8554 6.33673 0.0010826
